<svg width="155" height="33" viewBox="0 0 155 33" fill="none" xmlns="http://www.w3.org/2000/svg">
<path fill-rule="evenodd" clip-rule="evenodd" d="M0.976174 0.833363H19.0389C19.0389 0.833363 18.5571 1.70529 18.5571 2.79457V29.541C18.5571 30.9938 19.0986 32.2292 19.0986 32.2292H0.916504C0.916504 32.2292 1.45797 30.9925 1.45797 29.7571V3.01192C1.45797 1.99509 0.976174 0.833363 0.976174 0.833363ZM28.0316 0.904541H45.207C45.207 0.904541 44.7252 1.83493 44.7252 2.69543V12.2918L50.8117 3.33985C50.8117 3.33985 51.1741 2.69543 51.1741 2.05102V1.04817H68.6501L61.2375 12.9362C61.2375 12.9362 60.8762 13.437 60.8762 13.7954C60.8762 14.1538 61.1779 14.6546 61.1779 14.6546L70.6999 32.0564H49.6657C49.6657 32.0564 50.0282 31.4132 50.0282 30.7675C50.0282 30.1244 49.6657 29.3351 49.6657 29.3351L44.6633 19.9536V30.1244C44.6633 30.9836 45.2059 32.1275 45.2059 32.1275H28.0316C28.0316 32.1275 28.5134 31.3408 28.5134 30.4816V2.69416C28.5134 1.83621 28.0316 0.904541 28.0316 0.904541ZM75.815 1.12188H106.538V10.614C106.538 10.614 105.875 9.9111 105.034 9.9111H92.4423V12.5116H103.406V20.8789C103.406 20.8789 102.684 20.176 101.9 20.176H92.3219V23.0587H105.213C105.936 23.0587 106.359 21.7228 106.359 21.7228V32.1275H75.815C75.815 32.1275 76.3587 31.2137 76.3587 30.5807V3.4428C76.3598 2.31666 75.815 1.12188 75.815 1.12188ZM120.131 0.78125H144.696C144.696 0.78125 144.214 2.08914 144.214 2.81618C144.214 3.54321 144.635 4.8511 144.635 4.8511L154.449 32.1784H136.026C136.026 32.1784 136.447 31.3789 136.205 30.7256C135.697 29.2743 135.196 27.8202 134.701 26.3634H127.115C127.115 26.3634 125.609 30.2159 125.609 30.9442C125.609 31.6687 126.093 32.2521 126.093 32.2521H110.918L120.431 3.6881C120.431 3.6881 120.794 3.10597 120.794 2.38021C120.794 1.65445 120.131 0.78125 120.131 0.78125ZM130.547 14.736L128.74 20.3323H132.714L130.547 14.736Z" fill="white"/>
</svg>
