<svg width="26" height="26" viewBox="0 0 26 26" fill="none" xmlns="http://www.w3.org/2000/svg">
<path d="M20.0701 25.8217H22.0067C22.9867 25.8217 23.7917 25.0751 23.9084 24.1184L25.8334 4.89175H20.0001V0.166748H17.7017V4.89175H11.9034L12.2534 7.62175C14.2484 8.17008 16.1151 9.16175 17.2351 10.2584C18.9151 11.9151 20.0701 13.6301 20.0701 16.4301V25.8217ZM0.166748 24.6551V23.5001H17.7017V24.6551C17.7017 25.2967 17.1767 25.8217 16.5234 25.8217H1.34508C0.691748 25.8217 0.166748 25.2967 0.166748 24.6551ZM17.7017 16.4884C17.7017 7.15508 0.166748 7.15508 0.166748 16.4884H17.7017ZM0.190081 18.8334H17.6901V21.1667H0.190081V18.8334Z" fill="#1E3C87"/>
</svg>
