<svg width="11" height="15" viewBox="0 0 11 15" fill="none" xmlns="http://www.w3.org/2000/svg">
<path d="M10.0781 0H0.671875C0.300804 0 0 0.300804 0 0.671875V1.11979C0 1.49086 0.300804 1.79167 0.671875 1.79167C0.671875 4.33821 2.10006 6.48734 4.05482 7.16667C2.10006 7.84599 0.671875 9.99512 0.671875 12.5417C0.300804 12.5417 0 12.8425 0 13.2135V13.6615C0 14.0325 0.300804 14.3333 0.671875 14.3333H10.0781C10.4492 14.3333 10.75 14.0325 10.75 13.6615V13.2135C10.75 12.8425 10.4492 12.5417 10.0781 12.5417C10.0781 9.99512 8.64994 7.84599 6.69518 7.16667C8.64994 6.48734 10.0781 4.33821 10.0781 1.79167C10.4492 1.79167 10.75 1.49086 10.75 1.11979V0.671875C10.75 0.300804 10.4492 0 10.0781 0ZM7.97633 10.75H2.77372C3.25129 9.43993 4.23214 8.51042 5.375 8.51042C6.51778 8.51042 7.49874 9.43973 7.97633 10.75ZM7.97686 3.58333H2.77367C2.57518 3.03878 2.46354 2.42849 2.46354 1.79167H8.28646C8.28646 2.43009 8.17484 3.03987 7.97686 3.58333Z" fill="white"/>
</svg>
