<svg width="16" height="13" viewBox="0 0 16 13" fill="none" xmlns="http://www.w3.org/2000/svg">
<path d="M15.6 8.8H15.2V6.0975C15.2 5.78 15.0725 5.475 14.8475 5.25L12.35 2.7525C12.125 2.5275 11.82 2.4 11.5025 2.4H10.4V1.2C10.4 0.5375 9.8625 0 9.2 0H1.2C0.5375 0 0 0.5375 0 1.2V9.2C0 9.8625 0.5375 10.4 1.2 10.4H1.6C1.6 11.725 2.675 12.8 4 12.8C5.325 12.8 6.4 11.725 6.4 10.4H9.6C9.6 11.725 10.675 12.8 12 12.8C13.325 12.8 14.4 11.725 14.4 10.4H15.6C15.82 10.4 16 10.22 16 10V9.2C16 8.98 15.82 8.8 15.6 8.8ZM4 11.6C3.3375 11.6 2.8 11.0625 2.8 10.4C2.8 9.7375 3.3375 9.2 4 9.2C4.6625 9.2 5.2 9.7375 5.2 10.4C5.2 11.0625 4.6625 11.6 4 11.6ZM12 11.6C11.3375 11.6 10.8 11.0625 10.8 10.4C10.8 9.7375 11.3375 9.2 12 9.2C12.6625 9.2 13.2 9.7375 13.2 10.4C13.2 11.0625 12.6625 11.6 12 11.6ZM14 6.4H10.4V3.6H11.5025L14 6.0975V6.4Z" fill="white"/>
</svg>
