<svg width="99" height="37" viewBox="0 0 99 37" fill="none" xmlns="http://www.w3.org/2000/svg">
<path d="M12.8686 36.6049C12.6514 36.6049 12.4361 36.6049 12.2208 36.6049C9.30587 36.5043 7.0628 35.8731 5.16172 34.5849C1.62512 32.2019 0.0479334 28.7537 0.47643 24.3271C0.848598 20.4765 2.34129 16.685 5.17581 12.4004C7.61401 8.71352 10.4807 5.52768 13.7035 2.04396L14.2386 1.46795L14.5404 1.14443C14.7042 0.969181 14.9272 0.857881 15.1681 0.831022C15.409 0.804163 15.6518 0.863555 15.8516 0.998262C16.0514 1.13297 16.1949 1.33392 16.2556 1.56413C16.3163 1.79433 16.2901 2.03829 16.1819 2.25109C15.9948 2.61998 15.8098 2.97111 15.6307 3.31436C15.2565 4.02846 14.9025 4.69521 14.5907 5.3817C13.4601 7.83766 12.8867 9.94051 12.756 12.0039C12.5769 15.0793 13.5788 17.3616 15.8138 18.9832C17.055 19.8827 18.5759 20.3325 20.7445 20.4449C23.8244 20.6007 26.8541 19.8886 29.4532 19.2081C44.4989 15.2627 59.796 11.2799 74.5922 7.41945L87.9239 3.95152L95.3572 2.01438L97.2321 1.52713C97.3065 1.5074 97.383 1.49162 97.4574 1.47387L97.5379 1.45808C97.7882 1.40111 98.0514 1.4403 98.2732 1.5676C98.4951 1.69489 98.6588 1.90064 98.7308 2.1426L98.757 2.23334C98.826 2.46476 98.8062 2.71297 98.7013 2.93105C98.5964 3.14914 98.4137 3.32199 98.1876 3.41693L81.3516 10.4929L30.3444 31.9277C26.6811 33.4684 23.3557 34.8118 19.7769 35.6758C17.1415 36.3051 14.9266 36.6049 12.8686 36.6049ZM11.6797 7.26953C9.93612 9.23422 8.32724 11.3101 6.86364 13.4834C4.21219 17.4918 2.82008 20.9992 2.47809 24.5303C2.12 28.233 3.37129 30.9927 6.30036 32.9673C7.87151 34.0247 9.77258 34.5455 12.2852 34.6303C14.3392 34.6954 16.5682 34.4192 19.3001 33.7663C22.72 32.9437 25.9709 31.6318 29.5599 30.1267C46.5589 22.9778 63.5586 15.8309 80.559 8.6859L85.3468 6.67379L75.1092 9.3349C60.315 13.1934 45.0159 17.1861 29.9723 21.1235C27.2242 21.8415 24.0115 22.5951 20.6399 22.4215C19.0305 22.3406 16.6627 22.0585 14.6188 20.5771C11.8326 18.559 10.531 15.6454 10.7483 11.8974C10.8494 10.3213 11.1626 8.76515 11.6797 7.26953V7.26953Z" fill="white"/>
</svg>
