<svg width="103" height="101" viewBox="0 0 103 101" fill="none" xmlns="http://www.w3.org/2000/svg">
<g filter="url(#filter0_b_263_126)">
<path d="M99.7812 33.5075L94.7519 35.6183L31.9481 62.0243C28.5503 63.4525 25.1425 64.8531 21.5375 65.7151C19.1455 66.2891 16.7274 66.6856 14.253 66.6087C11.9234 66.5357 9.68239 66.086 7.73103 64.7722C4.38755 62.5194 3.10408 59.3197 3.47624 55.4297C3.87859 51.1885 5.68913 47.4621 8.0187 43.9468C10.4609 40.2422 13.4403 36.9676 16.4498 33.7167L17.2827 32.8191C16.7013 33.9593 16.1481 34.9535 15.6733 35.9753C14.6493 38.1946 13.8949 40.4947 13.7521 42.9487C13.567 46.1247 14.5286 48.8292 17.2163 50.7762C18.8257 51.9499 20.7308 52.3287 22.6922 52.4293C25.7822 52.5871 28.7515 51.9361 31.7127 51.1608C51.1969 46.0675 70.6831 40.9813 90.1712 35.9024L99.4815 33.478C99.572 33.4543 99.6625 33.4365 99.7551 33.4168L99.7812 33.5075Z" fill="white"/>
<g opacity="0.2">
<path opacity="0.2" d="M3.75592 53.7884C3.75592 53.7884 1.40825 65.0977 18.3067 62.9277C35.2051 60.7578 87.3087 38.2695 87.3087 38.2695L33.6501 61.3082C33.6501 61.3082 22.129 66.873 14.2832 66.6758C6.43754 66.4785 2.48049 61.0202 3.75592 53.7884Z" fill="white"/>
</g>
<path d="M14.8686 67.6049C14.6514 67.6049 14.4361 67.6049 14.2208 67.6049C11.3059 67.5043 9.0628 66.8731 7.16172 65.5849C3.62512 63.2019 2.04793 59.7537 2.47643 55.3271C2.8486 51.4765 4.34129 47.685 7.17581 43.4004C9.61401 39.7135 12.4807 36.5277 15.7035 33.044L16.2386 32.4679L16.5404 32.1444C16.7042 31.9692 16.9272 31.8579 17.1681 31.831C17.409 31.8042 17.6518 31.8636 17.8516 31.9983C18.0514 32.133 18.1949 32.3339 18.2556 32.5641C18.3163 32.7943 18.2901 33.0383 18.1819 33.2511C17.9948 33.62 17.8098 33.9711 17.6307 34.3144C17.2565 35.0285 16.9025 35.6952 16.5907 36.3817C15.4601 38.8377 14.8867 40.9405 14.756 43.0039C14.5769 46.0793 15.5788 48.3616 17.8138 49.9832C19.055 50.8827 20.5759 51.3325 22.7445 51.4449C25.8244 51.6007 28.8541 50.8886 31.4532 50.2081C46.4989 46.2627 61.796 42.2799 76.5922 38.4195L89.9239 34.9515L97.3572 33.0144L99.2321 32.5271C99.3065 32.5074 99.383 32.4916 99.4574 32.4739L99.5379 32.4581C99.7882 32.4011 100.051 32.4403 100.273 32.5676C100.495 32.6949 100.659 32.9006 100.731 33.1426L100.757 33.2333C100.826 33.4648 100.806 33.713 100.701 33.9311C100.596 34.1491 100.414 34.322 100.188 34.4169L83.3516 41.4929L32.3444 62.9277C28.6811 64.4684 25.3557 65.8118 21.7769 66.6758C19.1415 67.3051 16.9266 67.6049 14.8686 67.6049ZM13.6797 38.2695C11.9361 40.2342 10.3272 42.3101 8.86364 44.4834C6.21219 48.4918 4.82008 51.9992 4.47809 55.5303C4.12 59.233 5.37129 61.9927 8.30036 63.9673C9.87151 65.0247 11.7726 65.5455 14.2852 65.6303C16.3392 65.6954 18.5682 65.4192 21.3001 64.7663C24.72 63.9437 27.9709 62.6318 31.5599 61.1267C48.5589 53.9778 65.5586 46.8309 82.559 39.6859L87.3468 37.6738L77.1092 40.3349C62.315 44.1934 47.0159 48.1861 31.9723 52.1235C29.2242 52.8415 26.0115 53.5951 22.6399 53.4215C21.0305 53.3406 18.6627 53.0585 16.6188 51.5771C13.8326 49.559 12.531 46.6454 12.7483 42.8974C12.8494 41.3213 13.1626 39.7652 13.6797 38.2695V38.2695Z" fill="white"/>
</g>
<defs>
<filter id="filter0_b_263_126" x="-4" y="-4" width="111" height="109" filterUnits="userSpaceOnUse" color-interpolation-filters="sRGB">
<feFlood flood-opacity="0" result="BackgroundImageFix"/>
<feGaussianBlur in="BackgroundImage" stdDeviation="2"/>
<feComposite in2="SourceAlpha" operator="in" result="effect1_backgroundBlur_263_126"/>
<feBlend mode="normal" in="SourceGraphic" in2="effect1_backgroundBlur_263_126" result="shape"/>
</filter>
</defs>
</svg>
