<svg width="34" height="34" viewBox="0 0 34 34" fill="none" xmlns="http://www.w3.org/2000/svg">
<path d="M16.9934 8.13315C12.326 8.13315 8.56131 11.8987 8.56131 16.5671C8.56131 21.2356 12.326 25.0011 16.9934 25.0011C21.6608 25.0011 25.4255 21.2356 25.4255 16.5671C25.4255 11.8987 21.6608 8.13315 16.9934 8.13315ZM16.9934 22.0503C13.9772 22.0503 11.5114 19.5913 11.5114 16.5671C11.5114 13.5429 13.9699 11.0839 16.9934 11.0839C20.017 11.0839 22.4754 13.5429 22.4754 16.5671C22.4754 19.5913 20.0096 22.0503 16.9934 22.0503ZM27.7372 7.78816C27.7372 8.88186 26.8566 9.75536 25.7705 9.75536C24.677 9.75536 23.8037 8.87452 23.8037 7.78816C23.8037 6.70179 24.6843 5.82096 25.7705 5.82096C26.8566 5.82096 27.7372 6.70179 27.7372 7.78816ZM33.3219 9.78472C33.1972 7.14955 32.5954 4.81534 30.6653 2.89218C28.7426 0.969024 26.4089 0.36712 23.7743 0.234994C21.059 0.0808482 12.9205 0.0808482 10.2052 0.234994C7.57793 0.359779 5.24424 0.961683 3.31417 2.88484C1.3841 4.808 0.789672 7.14221 0.657576 9.77738C0.503464 12.4933 0.503464 20.6337 0.657576 23.3496C0.782333 25.9847 1.3841 28.319 3.31417 30.2421C5.24424 32.1653 7.57059 32.7672 10.2052 32.8993C12.9205 33.0534 21.059 33.0534 23.7743 32.8993C26.4089 32.7745 28.7426 32.1726 30.6653 30.2421C32.5881 28.319 33.1898 25.9847 33.3219 23.3496C33.476 20.6337 33.476 12.5006 33.3219 9.78472ZM29.8141 26.2637C29.2416 27.7024 28.1335 28.8108 26.6878 29.3906C24.5229 30.2495 19.3858 30.0513 16.9934 30.0513C14.601 30.0513 9.45662 30.2421 7.29906 29.3906C5.86068 28.8181 4.75255 27.7097 4.17279 26.2637C3.31417 24.0983 3.51231 18.9601 3.51231 16.5671C3.51231 14.1742 3.32151 9.02867 4.17279 6.87062C4.74521 5.43192 5.85334 4.32354 7.29906 3.74365C9.46396 2.88484 14.601 3.08303 16.9934 3.08303C19.3858 3.08303 24.5302 2.89218 26.6878 3.74365C28.1262 4.3162 29.2343 5.42458 29.8141 6.87062C30.6727 9.03601 30.4745 14.1742 30.4745 16.5671C30.4745 18.9601 30.6727 24.1056 29.8141 26.2637Z" fill="white"/>
</svg>
