<svg width="179" height="49" viewBox="0 0 179 49" fill="none" xmlns="http://www.w3.org/2000/svg">
<path fill-rule="evenodd" clip-rule="evenodd" d="M78.0913 21.4756L68.6876 3.6541H55.6668L78.0913 45.9302L100.448 3.6541H87.495L78.0913 21.4756ZM160.028 13.0855L178.31 44.9555H164.236L162.001 40.5318H146.085L143.916 44.9555H129.844L154.042 2.61367L160.028 13.0855ZM160.028 6.64672C160.553 6.64672 161.015 6.45141 161.343 6.06172C161.738 5.67109 161.934 5.21567 161.934 4.69546C161.934 4.17525 161.738 3.78462 161.343 3.39493C161.015 3.0043 160.553 2.80899 160.028 2.80899C159.501 2.80899 159.042 3.0043 158.647 3.39493C158.252 3.78556 158.12 4.17525 158.12 4.69546C158.12 5.21567 158.318 5.67109 158.647 6.06172C159.042 6.45141 159.501 6.64672 160.028 6.64672ZM160.028 2.41836C159.437 2.41836 158.843 2.61367 158.45 3.06909C157.923 3.45878 157.725 4.04473 157.725 4.69452C157.725 5.34526 157.923 5.93026 158.383 6.31995C158.842 6.77537 159.369 7.03547 160.027 7.03547C160.619 7.03547 161.21 6.77537 161.67 6.38474C162.131 5.93026 162.328 5.34432 162.328 4.69358C162.328 4.10858 162.131 3.52264 161.67 3.06815C161.211 2.61367 160.684 2.41836 160.028 2.41836ZM160.028 5.08515C160.093 5.08515 160.16 5.15088 160.225 5.15088C160.291 5.15088 160.357 5.21567 160.357 5.3462C160.423 5.41099 160.423 5.47577 160.423 5.67109C160.423 5.80161 160.423 5.93119 160.488 5.99599H161.079V5.93119V5.8664V5.54151C161.079 5.2814 161.015 5.08609 160.816 4.95651C160.752 4.89171 160.62 4.89171 160.488 4.82598C160.66 4.81866 160.823 4.74917 160.947 4.63067C161.014 4.56588 161.079 4.43535 161.079 4.17525C161.079 3.91514 161.015 3.71983 160.751 3.58931C160.587 3.50793 160.407 3.46336 160.224 3.45878H158.973V5.99599H159.697V5.08515H160.028ZM160.028 3.91514H159.698V4.63067H160.027C160.159 4.63067 160.224 4.56588 160.29 4.56588C160.422 4.50109 160.422 4.37056 160.422 4.24098C160.422 4.11046 160.356 3.98087 160.224 3.98087C160.16 3.91514 160.093 3.91514 160.028 3.91514ZM154.042 25.1171L150.031 32.7925H158.055L154.042 25.1171ZM53.1025 44.9555V3.65504H40.9371V44.9555H53.1025ZM128.726 14.7119V3.65504H103.013V44.9555H128.726V33.9644H115.246V28.5651H128.726V19.9149H115.246V14.7119H128.726ZM33.7027 3.65504H21.5373V19.7196L0.690674 0.987305V44.9555H12.8561V29.6046L33.7018 48.0129V3.65504H33.7027Z" fill="white"/>
</svg>
