<svg width="38" height="34" viewBox="0 0 38 34" fill="none" xmlns="http://www.w3.org/2000/svg">
<path d="M33.8635 8.31754C33.8871 8.67731 33.8871 9.03717 33.8871 9.39695C33.8871 20.3706 26.2109 33.0149 12.181 33.0149C7.85864 33.0149 3.84339 31.6528 0.46582 29.2885C1.07994 29.3656 1.67037 29.3913 2.30812 29.3913C5.87457 29.3913 9.1577 28.0806 11.7795 25.8447C8.42551 25.7676 5.6148 23.3776 4.6464 20.088C5.11882 20.165 5.59118 20.2165 6.08723 20.2165C6.77217 20.2165 7.45718 20.1136 8.09486 19.9338C4.59921 19.1628 1.97739 15.8218 1.97739 11.787V11.6842C2.99298 12.301 4.17405 12.6865 5.42578 12.7379C3.37089 11.2473 2.02465 8.70302 2.02465 5.82464C2.02465 4.2827 2.40249 2.86922 3.06387 1.63562C6.81935 6.67275 12.4644 9.96224 18.7943 10.3221C18.6762 9.70531 18.6053 9.06288 18.6053 8.42037C18.6053 3.84579 22.0065 0.119385 26.2344 0.119385C28.431 0.119385 30.4149 1.12167 31.8085 2.74075C33.5327 2.38097 35.186 1.68704 36.6505 0.73618C36.0835 2.6637 34.879 4.28277 33.2965 5.31069C34.8318 5.13088 36.3198 4.66818 37.6897 4.02576C36.6506 5.67046 35.3515 7.13529 33.8635 8.31754Z" fill="white"/>
</svg>
