<svg width="125" height="83" viewBox="0 0 125 83" fill="none" xmlns="http://www.w3.org/2000/svg">
<g clip-path="url(#clip0_263_141)">
<path d="M122.091 59.7539V60.1663C123.516 60.1663 124.698 59.0191 124.698 57.6071C124.693 56.9375 124.416 56.2968 123.929 55.8233C123.441 55.3498 122.781 55.0816 122.091 55.0764V55.4585C123.303 55.4585 124.303 56.4014 124.303 57.5779C124.304 58.7826 123.303 59.7539 122.091 59.7539Z" fill="white"/>
<path d="M122.091 57.5193V57.8134H122.334L122.789 58.9019H123.182L122.607 57.696C123.304 57.5201 123.304 56.3132 122.213 56.3132H122.091V56.5781H122.243C123.03 56.5781 122.94 57.5201 122.183 57.5201H122.091V57.5193ZM122.091 55.4587V55.0764C120.697 55.0764 119.516 56.2237 119.516 57.6072C119.516 59.0191 120.698 60.1664 122.091 60.1664V59.754C120.879 59.754 119.879 58.7827 119.879 57.5778C119.882 57.0092 120.117 56.4647 120.531 56.0626C120.945 55.6604 121.506 55.4331 122.091 55.4298V55.4582V55.4587Z" fill="white"/>
<path d="M122.091 56.5771V56.3122H121.242V58.9008H121.576V57.8131H122.091V57.5194H121.576V56.5774H122.091V56.5771ZM17.6061 61.9613V63.0792C15.7533 61.8107 13.5404 61.1322 11.2733 61.1376H11.2431C5.0907 61.1376 0 66.0508 0 72.0527C0 78.0252 5.0907 82.9677 11.2423 82.9677H11.2725C13.6659 82.9677 15.8177 82.2319 17.6053 80.9959V82.0854H22.4534V61.9613H17.6061ZM11.2725 78.0251H11.2423C7.8485 78.0251 5.12093 75.3477 5.12093 72.0525C5.12093 68.7859 7.84755 66.0792 11.2423 66.0792H11.2725C14.6361 66.0792 17.4241 68.7859 17.4241 72.0525C17.424 75.3475 14.6361 78.0249 11.2724 78.0249L11.2725 78.0251ZM98.5452 61.9903V63.0789C96.7274 61.8739 94.4843 61.1373 92.152 61.1373H92.1218C85.9702 61.1373 80.8795 66.0505 80.8795 72.0524C80.8795 78.0543 85.9702 82.9674 92.1218 82.9674H92.152C94.4851 82.9674 96.7274 82.2316 98.5452 81.0249V82.1135H103.364V61.9903H98.5452ZM92.152 78.0541H92.1218C88.7582 78.0541 86.0004 75.3474 86.0004 72.0524C86.0004 68.8151 88.758 66.1092 92.1218 66.1092H92.152C95.5156 66.1092 98.3036 68.8159 98.3036 72.0524C98.3027 75.3475 95.5148 78.0543 92.152 78.0543V78.0541ZM41.8489 55.1348V63.0781C40.0607 61.9309 37.8491 61.1366 35.5153 61.1366H35.485C29.3034 61.1366 24.273 66.0791 24.273 72.0223C24.273 78.0533 29.3032 82.9667 35.485 82.9667H35.5153C37.8493 82.9667 40.0917 82.2309 41.8489 81.0242V82.0834H46.697V55.1345L41.8489 55.1348ZM35.5151 78.0249H35.4849C32.1213 78.0249 29.3635 75.3475 29.3635 72.0232C29.3635 68.7859 32.1212 66.08 35.4849 66.08H35.5151C38.8788 66.08 41.6667 68.7867 41.6667 72.0232C41.6667 75.3475 38.8788 78.0249 35.5151 78.0249ZM74.394 55.1348V63.0781C72.5442 61.9309 70.333 61.1366 67.9999 61.1366H67.9706C61.8493 61.1366 56.7879 66.0791 56.7879 72.0223C56.7879 78.0533 61.8483 82.9667 67.9706 82.9667H67.9993C70.3333 82.9667 72.5747 82.2309 74.3933 81.0242V82.0834H79.1509V55.1345L74.394 55.1348ZM67.9993 78.0249H67.97C64.6055 78.0249 61.8789 75.3475 61.8789 72.0232C61.8789 68.7859 64.6055 66.08 67.97 66.08H67.9993C71.3629 66.08 74.1517 68.7867 74.1517 72.0232C74.1523 75.3475 71.3635 78.0249 67.9993 78.0249ZM50.121 60.3129H54.9701V55.1935H50.121V60.3129ZM50.121 82.1428H54.9701V62.0492H50.121V82.1428ZM105.393 75.5831C105.515 80.643 110.273 83.0848 115.484 82.9979C121.212 82.9091 125.06 80.379 125 75.7893C124.879 67.7579 111.364 70.494 111.364 67.1699C111.364 65.7564 112.606 65.1687 114.91 65.1687C117.819 65.1687 118.425 66.4635 118.667 67.8764H123.97C123.848 65.5234 121.758 60.9024 114.667 60.9024C108.576 60.9024 105.879 64.1095 105.879 68.023C105.879 75.9077 119.273 73.0829 119.273 76.7316C119.273 77.6735 118.272 78.9683 115.576 78.9683C113.151 78.9683 111.212 77.9389 111.212 75.5845H105.393V75.5835V75.5831Z" fill="white"/>
<path d="M50.121 55.1935H74.3939L54.3945 19.212L35.5453 29.098L50.121 55.1935ZM57.5145 9.88596L76.3325 0L107.091 55.1935H82.7275L57.5145 9.88596ZM41.9393 55.1935L32.5763 38.4233L13.7573 48.2799L17.6362 55.1938H41.9393V55.1935Z" fill="white"/>
</g>
<defs>
<clipPath id="clip0_263_141">
<rect width="125" height="83" fill="white"/>
</clipPath>
</defs>
</svg>
