<svg width="256" height="34" viewBox="0 0 256 34" fill="none" xmlns="http://www.w3.org/2000/svg">
<path d="M55.7865 0.00195312H35.2576C31.6723 0.00195312 28.7655 2.80487 28.7655 6.26229V27.6509C28.7655 31.1077 31.6723 33.9106 35.2576 33.9106H55.7865C59.3722 33.9106 62.2786 31.1077 62.2786 27.6509V6.26229C62.2786 2.80487 59.3718 0.00195312 55.7865 0.00195312ZM52.3598 19.7097L57.0186 32.969L45.8975 24.6364L35.1524 32.8963L39.4355 19.9995L29.5167 12.754H41.8401L45.7472 0.943879L49.88 12.754H61.4517L52.3598 19.7097ZM135.565 33.9972C131.381 33.9972 127.99 30.7271 127.99 26.6934V7.99481C127.99 3.96116 131.381 0.691082 135.565 0.691082H154.291V9.65115H137.984V12.8637H154.291V21.8245H137.984V25.0371H154.291V33.9978L135.565 33.9972ZM93.7859 7.99481C93.7859 3.96116 90.3947 0.691082 86.2113 0.691082H65.5561V33.9978H75.5509V9.6508H83.7921V33.9978H93.7866L93.7859 7.99481ZM7.57454 33.9978C3.39154 33.9978 0 30.7281 0 26.6941V7.99377C0 3.96012 3.39154 0.689697 7.57454 0.689697H25.9512V9.6508H9.99486V25.0371H25.9516V33.9978H7.57454ZM93.3539 0.689697H103.7L110.538 20.9792L117.552 0.689697H127.897L116.324 33.9978H104.752L93.3539 0.689697ZM209.764 33.9972C213.947 33.9972 217.339 30.7271 217.339 26.6934V20.1678C217.339 16.1345 213.947 12.8644 209.764 12.8644L199.278 12.8637V9.65115H216.112V0.690736H196.859C192.677 0.690736 189.285 3.96081 189.285 7.99447V14.5194C189.285 18.553 192.677 21.8235 196.859 21.8235H207.521V25.0367H189.284V33.9978L209.764 33.9972ZM246.625 33.9978L227.899 33.9972C223.716 33.9972 220.325 30.7271 220.325 26.6934V7.99481C220.325 3.96116 223.716 0.691082 227.899 0.691082H246.625V9.65115H230.318V12.8637H246.625V21.8245H230.318V25.0371H246.625V33.9978ZM180.877 21.3532C183.737 20.3095 185.771 17.6433 185.771 14.5197V7.99481C185.771 3.96116 182.38 0.691082 178.197 0.691082H157.893V33.9978H167.887V15.0613L176.83 33.9978H187L180.877 21.3532ZM176.127 12.8392H167.885V9.62656H176.127V12.8392ZM255 2.17358C254.334 1.53362 253.528 1.21399 252.583 1.21399C251.644 1.21399 250.842 1.53397 250.179 2.17358C249.513 2.81596 249.179 3.59027 249.179 4.49584C249.179 5.41041 249.51 6.18923 250.17 6.83161C250.833 7.4771 251.637 7.79985 252.583 7.79985C253.528 7.79985 254.335 7.47676 255 6.83161C255.667 6.18611 256 5.40729 256 4.49584C256 3.58716 255.667 2.81284 255 2.17358ZM254.661 6.51301C254.09 7.06916 253.398 7.34724 252.583 7.34724C251.767 7.34724 251.075 7.06916 250.505 6.51301C249.937 5.95721 249.653 5.2847 249.653 4.49584C249.653 3.71252 249.939 3.04486 250.509 2.49182C251.082 1.93602 251.774 1.65794 252.583 1.65794C253.395 1.65794 254.088 1.93602 254.661 2.49182C255.231 3.04486 255.517 3.71252 255.517 4.49584C255.517 5.2847 255.231 5.95721 254.661 6.51301Z" fill="white"/>
</svg>
