<svg width="66" height="60" viewBox="0 0 66 60" fill="none" xmlns="http://www.w3.org/2000/svg">
<g clip-path="url(#clip0_263_146)">
<path d="M-24.8342 43.1919C-24.8342 34.3898 -24.8342 25.6331 -24.8342 16.831C-21.8671 -6.82327 -7.23091 -19.8786 18.5258 -22.7217C28.1752 -22.7217 37.7748 -22.7217 47.4242 -22.7217C73.2557 -19.9241 87.7423 -6.80053 90.7593 16.831C90.7593 25.6331 90.7593 34.3898 90.7593 43.1919C87.7921 66.8462 73.3554 80.038 47.4242 82.7218C37.7748 82.7218 28.1752 82.7218 18.5258 82.7218C-7.40544 80.0153 -21.8671 66.8462 -24.8342 43.1919Z" fill="#ED6714" fill-opacity="0.05"/>
<path d="M69.3555 9.73608H59.3071C58.8833 9.73608 58.5342 10.0545 58.5342 10.4412V52.3593C58.5342 52.7459 58.8833 53.0644 59.3071 53.0644H69.3555C69.7794 53.0644 70.1284 52.7459 70.1284 52.3593V10.4639C70.1284 10.0773 69.7794 9.73608 69.3555 9.73608Z" fill="white"/>
<path d="M34.9877 9.73608H-3.36059C-3.78447 9.73608 -4.13354 10.0545 -4.13354 10.4412V52.3593C-4.13354 52.7459 -3.78447 53.0644 -3.36059 53.0644H6.7127C7.13657 53.0644 7.48565 52.7459 7.48565 52.3593V19.5162C7.48565 19.1296 7.83472 18.8111 8.2586 18.8111H29.9262C36.035 18.8111 37.7554 23.0644 37.7554 25.7937V52.3593C37.7554 52.7459 38.1045 53.0644 38.5283 53.0644H48.5767C49.0006 53.0644 49.3496 52.7459 49.3496 52.3593V22.6322C49.3496 20.1758 49.0504 16.6732 45.5846 13.5799C41.9941 10.282 38.653 9.73608 34.9877 9.73608Z" fill="white"/>
<path d="M27.9597 26.437H17.3628C16.9389 26.437 16.5898 26.7554 16.5898 27.1421V52.343C16.5898 52.7296 16.9389 53.0481 17.3628 53.0481H27.9597C28.3836 53.0481 28.7326 52.7296 28.7326 52.343V27.1421C28.7326 26.7554 28.3586 26.437 27.9597 26.437Z" fill="white"/>
</g>
<defs>
<clipPath id="clip0_263_146">
<rect width="66" height="60" fill="white"/>
</clipPath>
</defs>
</svg>
