<svg width="19" height="21" viewBox="0 0 19 21" fill="none" xmlns="http://www.w3.org/2000/svg">
<path d="M14.6111 6.88572V5.60857C14.6111 2.79167 12.3194 0.5 9.5025 0.5C6.6856 0.5 4.39393 2.79167 4.39393 5.60857V6.88572H0.5625V17.7414C0.5625 19.5048 1.99198 20.9343 3.75536 20.9343H15.2496C17.013 20.9343 18.4425 19.5048 18.4425 17.7414V6.88572H14.6111ZM6.94821 5.60857C6.94821 4.20012 8.09405 3.05429 9.5025 3.05429C10.9109 3.05429 12.0568 4.20012 12.0568 5.60857V6.88572H6.94821V5.60857ZM13.3339 10.3979C12.8049 10.3979 12.3761 9.96902 12.3761 9.44C12.3761 8.91099 12.8049 8.48215 13.3339 8.48215C13.8629 8.48215 14.2918 8.91099 14.2918 9.44C14.2918 9.96902 13.8629 10.3979 13.3339 10.3979ZM5.67107 10.3979C5.14205 10.3979 4.71321 9.96902 4.71321 9.44C4.71321 8.91099 5.14205 8.48215 5.67107 8.48215C6.20009 8.48215 6.62893 8.91099 6.62893 9.44C6.62893 9.96902 6.20009 10.3979 5.67107 10.3979Z" fill="white"/>
</svg>
