<svg width="20" height="20" viewBox="0 0 20 20" fill="none" xmlns="http://www.w3.org/2000/svg">
<path d="M14.4469 12.1667H13.5904L13.2869 11.8742C14.3494 10.6392 14.989 9.03583 14.989 7.29167C14.989 3.4025 11.8341 0.25 7.94184 0.25C4.04962 0.25 0.894653 3.4025 0.894653 7.29167C0.894653 11.1808 4.04962 14.3333 7.94184 14.3333C9.68737 14.3333 11.292 13.6942 12.5279 12.6325L12.8207 12.9358V13.7917L18.2416 19.1975L19.857 17.5833L14.4469 12.1667ZM7.94184 12.1667C5.24223 12.1667 3.06302 9.98917 3.06302 7.29167C3.06302 4.59417 5.24223 2.41667 7.94184 2.41667C10.6415 2.41667 12.8207 4.59417 12.8207 7.29167C12.8207 9.98917 10.6415 12.1667 7.94184 12.1667Z" fill="black"/>
</svg>
