<svg width="57" height="68" viewBox="0 0 57 68" fill="none" xmlns="http://www.w3.org/2000/svg">
<path d="M55.1864 23.1812C54.7802 23.4872 47.6097 27.4108 47.6097 36.1352C47.6097 46.2264 56.7339 49.7964 57.007 49.8848C56.965 50.1024 55.5575 54.774 52.1963 59.534C49.1993 63.7228 46.0692 67.9048 41.3075 67.9048C36.5458 67.9048 35.3204 65.2188 29.8235 65.2188C24.4666 65.2188 22.5619 67.9932 18.2064 67.9932C13.8509 67.9932 10.8118 64.1172 7.31757 59.3572C3.27015 53.7676 0 45.084 0 36.8424C0 23.6232 8.85111 16.6124 17.5622 16.6124C22.1908 16.6124 26.0491 19.5636 28.9552 19.5636C31.7211 19.5636 36.0346 16.4356 41.3005 16.4356C43.2962 16.4356 50.4667 16.6124 55.1864 23.1812ZM38.8006 10.8392C40.9784 8.33 42.5189 4.8484 42.5189 1.3668C42.5189 0.884 42.4769 0.3944 42.3859 0C38.8426 0.1292 34.6272 2.2916 32.0853 5.1544C30.0896 7.3576 28.2269 10.8392 28.2269 14.3684C28.2269 14.8988 28.3179 15.4292 28.36 15.5992C28.584 15.64 28.9482 15.6876 29.3123 15.6876C32.4914 15.6876 36.4898 13.6204 38.8006 10.8392Z" fill="white"/>
</svg>
