<svg width="10" height="14" viewBox="0 0 10 14" fill="none" xmlns="http://www.w3.org/2000/svg">
<path d="M8.75 4.375H8.125V3.125C8.125 1.4 6.725 0 5 0C3.275 0 1.875 1.4 1.875 3.125V4.375H1.25C0.5625 4.375 0 4.9375 0 5.625V11.875C0 12.5625 0.5625 13.125 1.25 13.125H8.75C9.4375 13.125 10 12.5625 10 11.875V5.625C10 4.9375 9.4375 4.375 8.75 4.375ZM5 10C4.3125 10 3.75 9.4375 3.75 8.75C3.75 8.0625 4.3125 7.5 5 7.5C5.6875 7.5 6.25 8.0625 6.25 8.75C6.25 9.4375 5.6875 10 5 10ZM6.9375 4.375H3.0625V3.125C3.0625 2.05625 3.93125 1.1875 5 1.1875C6.06875 1.1875 6.9375 2.05625 6.9375 3.125V4.375Z" fill="black"/>
</svg>
