<svg width="247" height="39" viewBox="0 0 247 39" fill="none" xmlns="http://www.w3.org/2000/svg">
<path fill-rule="evenodd" clip-rule="evenodd" d="M196.401 38.169V28.292H197.168L198.857 27.9587L200.054 27.535L201.189 26.902L202.201 26.1773L203.121 25.2718L203.918 24.2422L204.687 22.8238L205.085 21.6457L205.362 20.4069L205.392 19.3502L205.33 18.1114L205.053 16.8726L204.594 15.7242L203.978 14.6068L203.212 13.6108L201.83 12.372L200.756 11.7067L199.589 11.1629L198.361 10.8309L197.072 10.6487H196.397V0.680002L197.564 0.709717L199.497 0.921572L201.369 1.31428L203.182 1.88912L204.9 2.61381L206.559 3.48964L208.186 4.60704L209.781 5.966L211.163 7.41668L212.299 8.89707L213.28 10.4679L214.049 12.0684L214.569 13.5785L214.723 14.2425V1.3737H223.962L236.239 19.2288L236.209 1.28327L246.279 1.3737V37.7453H237.191L224.698 19.9832V37.7453H214.723V24.8481L214.476 25.5418L213.833 27.1139L212.972 28.7441L211.96 30.2852L210.793 31.7359L209.504 33.0651L208.063 34.2742L206.527 35.3309L204.9 36.2365L203.151 36.9909L201.188 37.5967L199.252 37.9881L197.412 38.1703H196.401V38.169ZM196.401 0.680002V10.6487H195.786L194.497 10.8309L193.271 11.1926L192.101 11.7364L191.028 12.4017L190.046 13.2478L189.187 14.1844L188.483 15.272L187.96 16.3894L187.591 17.5985L187.376 18.8671V20.1059L187.561 21.3744L187.9 22.5836L188.422 23.7617L188.666 24.2138L188.851 24.4566L189.22 24.9708L190.11 25.9073L191.092 26.6914L192.197 27.358L193.394 27.8398L194.623 28.1731L195.912 28.3243L196.404 28.2945V38.1716H195.545L193.702 38.0204L191.862 37.6897L190.02 37.1149L188.271 36.3902L186.612 35.5454L185.077 34.5158L183.697 33.3674L183.113 32.8856L182.623 32.4011V37.7479H161.474V1.3737H171.388V28.7428H179.892L179.523 27.9884L179.125 27.2043L178.448 25.5418L177.928 23.8211L177.56 22.0074L177.374 20.1963V18.4137L177.59 16.5406L177.99 14.6378L178.541 12.7944L179.278 11.1021L180.2 9.50162L181.244 7.99153L182.441 6.57056L183.792 5.27231L185.233 4.12391L186.799 3.12665L188.426 2.31153L190.144 1.61655L191.925 1.13213L193.766 0.829856L195.606 0.678711H196.401V0.680002ZM91.6394 31.7953V23.3354H93.8799V16.569L91.6394 19.9225V3.45864L92.9283 1.3737H103.611V37.7453H93.8799V31.7966H91.6394V31.7953ZM111.683 37.7453H121.505V10.2263H128.564V1.3737H104.899V10.2263H111.682V37.7453H111.683ZM129.577 37.7453H139.585V24.0329H149.714V37.7453H159.658V1.3737L149.714 1.34398V15.3612H139.585V1.3737H129.577V37.7453ZM17.2354 10.7094L18.1253 11.0117L19.3224 11.5853L20.4275 12.3113L21.4106 13.1574L22.2703 14.1249L22.9765 15.2126L23.5291 16.361L23.8966 17.5701L24.1118 18.7482L24.1735 19.8346L24.0816 20.9223L23.8664 22.0707L23.4359 23.2488L22.8531 24.3972L21.9934 25.5146L20.9197 26.5416L19.7227 27.42L18.464 28.053L17.2367 28.4767V37.5993L18.1266 37.4779L20.2136 36.9637L22.1784 36.2701L23.8349 35.4549L25.4309 34.4254L26.9049 33.2473L28.1938 32.011L29.3292 30.6211L30.4343 28.9882L31.0171 28.022V37.7479H51.4297V28.9882H40.8703V23.9722H51.4297V15.3315H40.8703V9.98346H51.4297V1.3737H31.0171V11.4341L30.8018 10.8606L29.9736 9.50162L28.8383 8.02123L27.3643 6.48143L25.8299 5.18188L24.2654 4.1252L22.4541 3.21837L20.2136 2.43296L18.0033 1.85812L17.2367 1.73798V10.7094H17.2354ZM91.6394 3.45864V19.9225L89.3976 23.3367H91.6394V31.7966H85.8695L85.1633 32.4903L83.7208 33.7898L82.2167 34.9382L80.6206 35.9045L78.9327 36.7196L77.1831 37.3862L75.3718 37.868L73.4988 38.2013L71.5956 38.3227L69.7226 38.293L67.8811 38.0501L65.9779 37.629L64.0432 36.9935L62.2634 36.2093L60.6989 35.2431L59.1947 34.1554L57.8756 32.9463L56.6471 31.586L55.5419 30.1354L54.589 28.5361L53.7306 26.6617L53.0245 24.6078L52.5638 22.705L52.3485 20.8306L52.2881 19.0195L52.4417 17.1761L52.7488 15.3638L53.2397 13.5824L53.9459 11.7997L54.8358 10.0778L55.8792 8.53795L57.0461 7.11698L58.335 5.84844L59.7775 4.70134L61.3118 3.67437L63.0313 2.76883L64.9646 1.98342L66.9295 1.43958L68.771 1.10759L70.644 0.925445L72.5157 0.986155L74.3572 1.167L76.1987 1.59071L78.0402 2.19527L79.7898 2.91996L81.416 3.8268L82.9202 4.88349L84.301 6.06159L85.4678 7.20999L85.9285 7.75384L80.8332 15.5485L80.1888 14.9749L79.5443 14.4014L78.1018 13.3434L76.4743 12.3771L74.7247 11.5917L72.9751 11.1086L71.4394 10.9278L69.9667 11.0182L68.4625 11.3812L66.9899 11.925L65.7928 12.6794L64.8111 13.4945L63.9815 14.4621L63.2754 15.5498L62.7543 16.7279L62.3855 17.9667L62.2332 19.1991V20.4379L62.4485 21.6767L62.8475 22.8858L63.4001 24.064L64.1377 25.1206L65.0276 26.0572L66.0107 26.8116L67.1159 27.4446L68.3444 27.929L69.7252 28.2313L71.1073 28.3824L72.4264 28.292L73.655 28.0491L74.8835 27.5944L75.9887 27.0221L77.0321 26.2974L77.8603 25.5715L78.2292 25.2111L91.6394 3.45864ZM10.2671 28.9857V10.2263H12.9985L14.3491 10.256L15.6381 10.3775L16.8955 10.5893L17.2341 10.7107V1.73798L15.7601 1.52612L13.244 1.37499H0.719727V37.7466H15.0855L16.4361 37.6884L17.2341 37.598V28.4754L17.1107 28.5051L15.6381 28.8035L13.9186 28.925L12.967 28.9857H10.2671Z" fill="white"/>
</svg>
